<?xml version="1.0" standalone="no"?>
<!DOCTYPE svg PUBLIC "-//W3C//DTD SVG 20010904//EN"
 "http://www.w3.org/TR/2001/REC-SVG-20010904/DTD/svg10.dtd">
<svg version="1.0" xmlns="http://www.w3.org/2000/svg"
 width="1024.000000pt" height="1024.000000pt" viewBox="0 0 1024.000000 1024.000000"
 preserveAspectRatio="xMidYMid meet">

<g transform="translate(0.000000,1024.000000) scale(0.100000,-0.100000)"
fill="#000000" stroke="none">
<path d="M5085 8564 c-271 -37 -365 -58 -552 -120 -551 -184 -1057 -578 -1396
-1088 -83 -124 -122 -195 -112 -204 4 -4 460 -7 1013 -8 554 0 1022 -1 1040
-2 l32 -2 0 -170 0 -170 -1348 0 -1348 0 -177 170 -177 170 -178 0 c-125 0
-182 -4 -190 -12 -8 -8 -12 -60 -12 -167 0 -133 3 -162 20 -199 19 -41 99
-127 253 -271 l67 -63 1 -760 c0 -841 6 -1016 40 -1123 51 -166 129 -276 335
-474 149 -144 399 -361 463 -402 l45 -29 180 0 c247 0 276 10 276 96 0 34 -11
48 -133 173 -334 343 -525 550 -576 625 -73 106 -71 75 -71 962 l0 794 1343 0
c1089 0 1351 3 1392 14 123 32 225 113 282 222 64 121 63 96 63 1105 l0 917
-37 6 c-47 7 -497 16 -538 10z"/>
<path d="M6172 7788 l3 -633 23 -45 c34 -69 74 -112 133 -145 50 -28 62 -30
154 -30 112 0 144 11 320 110 73 42 653 391 663 400 8 7 -155 204 -248 299
-179 185 -359 331 -565 456 -138 85 -428 220 -470 220 -14 0 -15 -56 -13 -632z"/>
<path d="M7660 7043 c-297 -195 -609 -409 -646 -445 -18 -16 -45 -53 -60 -81
-24 -43 -29 -64 -29 -122 0 -86 29 -144 93 -190 l44 -30 464 -3 c255 -1 464
-1 464 1 0 30 -49 261 -75 354 -59 209 -193 534 -219 532 -6 0 -22 -7 -36 -16z"/>
<path d="M6329 6565 c-43 -23 -59 -59 -143 -315 l-81 -245 -270 -6 c-272 -6
-311 -11 -385 -49 -69 -36 -120 -113 -120 -182 1 -46 31 -109 70 -141 70 -60
79 -61 410 -67 l305 -5 80 -198 c91 -226 114 -257 186 -257 91 0 104 18 215
308 l59 152 964 0 963 0 107 -64 c344 -206 388 -223 445 -174 44 37 39 83 -20
176 -26 43 -73 119 -105 171 l-59 95 26 45 c147 257 177 317 182 357 6 55 -14
88 -63 104 -52 17 -79 5 -311 -141 l-205 -129 -957 0 -957 -1 -85 259 c-47
143 -92 267 -99 276 -36 44 -104 57 -152 31z"/>
<path d="M3670 5900 c-20 -20 -20 -33 -20 -1079 l0 -1058 53 -49 c284 -267
780 -480 1259 -539 187 -23 550 -17 676 10 l22 5 0 776 c0 870 0 863 -71 1011
-44 93 -130 192 -209 243 -27 17 -98 51 -157 76 -138 57 -201 95 -271 166
-107 106 -192 285 -192 402 l0 56 -535 0 c-522 0 -535 0 -555 -20z"/>
<path d="M6941 5404 c-24 -31 -28 -89 -7 -137 7 -18 104 -147 215 -287 130
-165 205 -268 211 -292 12 -43 0 -110 -24 -137 -29 -31 -91 -54 -129 -47 -20
4 -131 69 -258 152 -269 174 -361 222 -445 230 -129 13 -239 -47 -296 -163
l-33 -68 -3 -673 -3 -674 33 7 c103 23 417 178 583 289 502 334 856 769 1064
1308 63 164 149 496 133 513 -3 3 -234 5 -513 5 l-508 0 -20 -26z"/>
<path d="M7901 2630 c-160 -34 -261 -167 -248 -327 9 -119 74 -177 244 -219
107 -27 133 -43 133 -85 0 -34 -40 -59 -93 -59 -38 0 -132 30 -177 57 -29 17
-30 16 -44 -2 -20 -27 -96 -166 -96 -176 0 -13 81 -56 147 -78 83 -28 217 -29
302 -2 158 49 251 191 221 336 -23 110 -102 176 -259 215 -98 24 -131 42 -131
70 0 55 102 64 205 16 l53 -24 51 99 52 98 -39 25 c-82 52 -223 76 -321 56z"/>
<path d="M1207 2613 c-13 -12 -8 -221 6 -230 6 -4 67 -6 135 -4 l122 3 0 -330
c0 -305 1 -330 18 -337 9 -3 65 -3 125 1 l107 7 0 328 0 329 124 0 c69 0 127
4 130 9 5 7 10 164 7 214 -1 16 -26 17 -384 17 -211 0 -387 -3 -390 -7z"/>
<path d="M2158 2603 c-2 -10 -2 -212 0 -450 l4 -431 26 -4 c15 -2 71 -2 125 0
l97 4 0 120 0 119 37 -3 c36 -3 43 -10 122 -120 l85 -118 143 0 c79 0 143 3
143 6 0 7 -68 103 -147 209 -29 39 -53 72 -53 75 0 3 22 23 49 45 71 55 103
120 109 215 5 99 -22 175 -87 240 -92 91 -167 110 -445 110 -186 0 -204 -2
-208 -17z m440 -233 c71 -44 76 -149 9 -190 -25 -16 -50 -20 -114 -20 l-83 0
0 115 0 115 78 0 c60 0 84 -5 110 -20z"/>
<path d="M3489 2573 c-12 -26 -104 -227 -206 -446 -102 -219 -183 -401 -180
-403 6 -6 61 -8 170 -6 l97 2 27 55 27 55 176 0 175 0 24 -55 23 -55 139 0
c81 0 139 4 139 9 0 6 -71 162 -159 348 -87 186 -179 383 -204 438 l-45 100
-91 3 -90 3 -22 -48z m187 -509 c6 -24 6 -24 -81 -24 -66 0 -86 3 -82 13 3 6
22 54 43 106 l39 93 38 -82 c20 -46 40 -94 43 -106z"/>
<path d="M4284 2594 c6 -23 340 -754 387 -846 l21 -41 86 7 c47 3 87 8 89 10
8 8 387 841 397 874 l7 22 -131 0 -131 0 -36 -77 c-19 -43 -61 -136 -93 -208
-31 -71 -68 -152 -82 -179 l-25 -48 -88 198 c-48 110 -101 225 -117 257 l-28
57 -131 0 -131 0 6 -26z"/>
<path d="M5767 2613 c-4 -7 -2 -847 2 -880 1 -10 32 -13 121 -13 l120 0 0 175
0 176 138 -3 c101 -2 137 -6 138 -15 1 -7 2 -85 3 -173 l1 -160 119 0 118 0 4
173 c3 94 4 296 4 447 l0 275 -122 3 -123 3 0 -161 0 -160 -140 0 -140 0 0
160 0 160 -119 0 c-66 0 -122 -3 -124 -7z"/>
<path d="M7000 2606 c-156 -44 -277 -174 -311 -334 -41 -199 53 -391 233 -477
309 -149 660 113 608 452 -40 260 -286 427 -530 359z m195 -259 c115 -65 134
-218 38 -309 -71 -68 -177 -65 -252 5 -62 59 -78 144 -42 222 44 96 163 135
256 82z"/>
<path d="M8412 2503 l3 -118 126 -3 126 -3 7 -73 c4 -40 6 -187 6 -326 -1
-199 2 -255 12 -262 12 -8 215 -1 231 9 4 2 7 150 7 329 l0 324 125 0 c147 0
138 -10 133 140 l-3 95 -388 3 -388 2 3 -117z"/>
<path d="M5383 2289 c-36 -10 -80 -58 -90 -97 -16 -65 51 -152 119 -152 145 0
190 191 58 244 -45 18 -43 18 -87 5z"/>
</g>
</svg>
